<svg xmlns="http://www.w3.org/2000/svg" xmlns:xlink="http://www.w3.org/1999/xlink" width="134" height="190"><defs><linearGradient id="b" x1="66.979" y1="-4.818" x2="66.979" y2="182.759" gradientUnits="userSpaceOnUse"><stop offset="0" stop-color="#f6f2ff" stop-opacity="0"/><stop offset=".04" stop-color="#f1eeff" stop-opacity=".032"/><stop offset=".483" stop-color="#bdc8ff" stop-opacity=".386"/><stop offset=".817" stop-color="#9cb1ff" stop-opacity=".653"/><stop offset="1" stop-color="#90a8ff" stop-opacity=".8"/></linearGradient><linearGradient id="a" x1="114.677" y1="1325.687" x2="17.333" y2="1389.847" gradientTransform="matrix(1 0 0 -1 0 1488.171)" gradientUnits="userSpaceOnUse"><stop offset=".001" stop-color="#d5d5ff"/><stop offset=".001" stop-color="#d6d7ff"/><stop offset=".999" stop-color="#91bcff"/><stop offset="1" stop-color="#97aeff"/></linearGradient><linearGradient id="c" x1="116.353" y1="1324.797" x2="84.169" y2="1346.01" xlink:href="#a"/><linearGradient id="d" y1="1335.182" x2="67.238" y2="1335.182" gradientTransform="matrix(1 0 0 -1 0 1488.171)" gradientUnits="userSpaceOnUse"><stop offset="0" stop-color="#81a1e4"/><stop offset="1" stop-color="#9bb1ff"/></linearGradient><linearGradient id="e" x1="68.132" y1="61.286" x2="68.132" y2="145.818" gradientUnits="userSpaceOnUse"><stop offset="0" stop-color="#f1f2fc"/><stop offset="1" stop-color="#a9bcfe"/></linearGradient><linearGradient id="f" x1="62.539" y1="74.74" x2="62.539" y2="169.075" gradientUnits="userSpaceOnUse"><stop offset="0" stop-color="#b2c8ff"/><stop offset=".999" stop-color="#e3e5fd"/></linearGradient></defs><path d="m66.762 92.241 67.195 38.93V-10H0v141.171Z" style="isolation:isolate;opacity:.4;fill:url(#b)"/><path d="m.043 131.075 66.763-38.93L134 131.075l-66.762 38.93Z" style="fill:url(#a);opacity:.5;isolation:isolate"/><path d="m134 131.075-.043 4.9L67.194 174.9l.044-4.9Z" style="opacity:.8;fill:url(#c);isolation:isolate"/><path d="m67.238 170.005-.043 4.9L0 135.974l.043-4.9Z" style="fill:url(#d);opacity:.5;isolation:isolate"/><path style="fill:#e0e0e0;opacity:.3" d="m67.194 174.904-54.205-31.405L0 151.073l67.194 38.93 66.763-38.93-12.989-7.525-53.774 31.356z"/><path d="M67.743 77.978C62 74.644 56.736 74.347 52.967 76.549l-5.145 2.976c3.769-2.2 8.974-1.905 14.776 1.429 11.486 6.607 20.759 22.56 20.7 35.655 0 6.488-2.333 11.072-6.042 13.275l5.145-2.977c3.708-2.143 6.042-6.726 6.042-13.274.057-13.095-9.214-29.108-20.7-35.655Z" style="fill:url(#e)"/><path d="M62.6 80.954c11.486 6.607 20.759 22.56 20.7 35.655S73.965 135 62.479 128.455C50.993 121.848 41.721 105.9 41.78 92.8c.06-13.156 9.333-18.454 20.82-11.846Z" style="fill:url(#f)"/><path d="M61.461 118.825a5.634 5.634 0 0 1-2.067-1.932 4.409 4.409 0 0 1-.627-2.306v-.748c0-.811.188-1.308.627-1.558s1.127-.124 2.067.436a4.984 4.984 0 0 1 2 1.933 5.083 5.083 0 0 1 .626 2.3v.749c0 .809-.188 1.308-.626 1.557-.372.192-1.061.068-2-.431Zm-.877-11.525-1.378-11.9v-7.55l4.509 2.618v7.541L62.4 108.354Z" style="fill:#fff"/></svg>